################################
# OBJ generated by split_obj.py
################################
# Faces:    92
# Vertices: 50
# Normals:  120
# UVs:      34
################################

# vertices

v -26.112700 80.806801 3.402100
v -41.378502 74.739998 2.335600
v -24.655600 60.777100 0.529500
v -23.287800 54.979099 -0.865600
v -26.554501 87.538300 7.690900
v -47.889801 76.183998 6.128200
v -31.889799 57.486500 5.617600
v -31.648500 53.178299 4.559500
v -26.009501 86.264397 0.648400
v -45.067001 77.150597 -1.044200
v -29.356199 60.366699 -5.531400
v -29.114901 56.058498 -6.589600
v -22.706499 44.488800 -3.138000
v -27.869200 43.221500 0.844000
v -26.295200 45.311100 -7.304600
v -26.229200 82.747398 9.146700
v -43.905800 74.282204 8.031000
v -27.032700 57.210999 7.847000
v -26.791401 52.902802 6.788800
v -24.875000 42.992199 2.460700
v -26.283400 83.343300 6.343100
v -29.777100 56.146999 11.553000
v -29.535700 51.838799 10.494800
v -24.919800 55.871601 13.782200
v -24.678400 51.563400 12.724100
v 26.112700 80.806801 3.402100
v 41.378502 74.739998 2.335600
v 24.655600 60.777100 0.529500
v 23.287800 54.979099 -0.865600
v 26.554501 87.538300 7.690900
v 47.889801 76.183998 6.128200
v 31.889799 57.486500 5.617600
v 31.648500 53.178299 4.559500
v 26.009501 86.264397 0.648400
v 45.067001 77.150597 -1.044200
v 29.356199 60.366699 -5.531400
v 29.114901 56.058498 -6.589600
v 22.706499 44.488800 -3.138000
v 27.869200 43.221500 0.844000
v 26.295200 45.311100 -7.304600
v 26.229200 82.747398 9.146700
v 43.905800 74.282204 8.031000
v 27.032700 57.210999 7.847000
v 26.791401 52.902802 6.788800
v 24.875000 42.992199 2.460700
v 26.283400 83.343300 6.343100
v 29.777100 56.146999 11.553000
v 29.535700 51.838799 10.494800
v 24.919800 55.871601 13.782200
v 24.678400 51.563400 12.724100

# normals

vn 0.99893 0.03954 0.02388
vn 0.36544 -0.85477 -0.36854
vn 0.88934 0.45647 -0.02641
vn 0.72163 0.24236 -0.64847
vn 0.99801 0.05416 0.03217
vn -0.37382 0.0605 0.92553
vn -0.67586 -0.36527 0.64015
vn -0.82163 -0.25413 0.51023
vn 0.99786 0.02465 0.06064
vn 0.2889 -0.5207 -0.80338
vn 0.6924 0.55658 -0.45914
vn 0.72366 0.24761 -0.64421
vn 0.05433 -0.9697 -0.23817
vn 0.05434 -0.9697 -0.23817
vn 0.05433 -0.9697 -0.23817
vn 0.99761 0.06898 -0.00463
vn -0.44084 -0.18863 0.87754
vn -0.40035 -0.40456 0.82222
vn -0.42428 -0.43907 0.79196
vn 0.99851 0.04685 0.02803
vn -0.82603 -0.17766 0.53489
vn -0.63699 -0.21735 0.7396
vn 0.9431 0.1282 -0.30681
vn 0.05433 -0.9697 -0.23817
vn -0.99893 0.03954 0.02388
vn -0.36544 -0.85477 -0.36854
vn -0.88934 0.45647 -0.02641
vn -0.72163 0.24236 -0.64847
vn -0.99801 0.05416 0.03217
vn 0.37382 0.0605 0.92553
vn 0.67586 -0.36527 0.64015
vn 0.82163 -0.25413 0.51023
vn -0.99786 0.02465 0.06064
vn -0.2889 -0.5207 -0.80338
vn -0.6924 0.55658 -0.45914
vn -0.72366 0.24761 -0.64421
vn -0.05433 -0.9697 -0.23817
vn -0.05434 -0.9697 -0.23817
vn -0.05433 -0.9697 -0.23817
vn -0.99761 0.06898 -0.00463
vn 0.44084 -0.18863 0.87754
vn 0.40035 -0.40456 0.82222
vn 0.42428 -0.43907 0.79196
vn -0.99851 0.04685 0.02803
vn 0.82603 -0.17766 0.53489
vn 0.63699 -0.21735 0.7396
vn -0.9431 0.1282 -0.30681
vn -0.05433 -0.9697 -0.23817
vn -0.22743 0.32907 0.91651
vn -0.21289 0.27082 0.9388
vn 0.39747 -0.84363 -0.36097
vn 0.38198 -0.90338 0.19495
vn 0.39636 -0.86734 0.30104
vn 0.62526 0.65931 0.41756
vn 0.65188 0.74683 -0.13152
vn 0.97027 0.23651 0.05148
vn 0.2844 -0.43615 -0.85375
vn 0.67574 0.69682 -0.24046
vn 0.73387 0.20338 -0.64813
vn 0.76274 0.17701 -0.62201
vn -0.45441 -0.42884 0.78077
vn 0.91464 0.02505 0.4035
vn 0.92266 -0.01524 0.38532
vn 0.93445 -0.02516 0.35521
vn 0.9734 0.05474 0.22246
vn -0.44004 0.88994 -0.11993
vn -0.42759 0.90277 -0.04662
vn -0.44998 0.87203 -0.19256
vn -0.72528 -0.5967 -0.34339
vn -0.90036 -0.31599 -0.29917
vn -0.90106 -0.32388 -0.28843
vn -0.72648 -0.5826 -0.36443
vn -0.96679 -0.08395 -0.24139
vn -0.95525 -0.16144 -0.24785
vn -0.93562 -0.24045 -0.25845
vn -0.94249 -0.23122 -0.24135
vn 0.05432 -0.9697 -0.23818
vn 0.05432 -0.9697 -0.23818
vn 0.9431 0.12819 -0.30681
vn -0.05432 0.9697 0.23818
vn -0.05432 0.9697 0.23817
vn -0.05433 0.9697 0.23818
vn -0.4162 -0.23881 0.87735
vn -0.41621 -0.2388 0.87735
vn 0.22743 0.32907 0.91651
vn 0.21289 0.27082 0.9388
vn -0.39747 -0.84363 -0.36097
vn -0.38198 -0.90338 0.19495
vn -0.39636 -0.86734 0.30104
vn -0.62526 0.65931 0.41756
vn -0.65188 0.74683 -0.13152
vn -0.97027 0.23651 0.05148
vn -0.2844 -0.43615 -0.85375
vn -0.67574 0.69682 -0.24046
vn -0.73387 0.20338 -0.64813
vn -0.76274 0.17701 -0.62201
vn 0.45441 -0.42884 0.78077
vn -0.91464 0.02505 0.4035
vn -0.93445 -0.02516 0.35521
vn -0.92266 -0.01524 0.38532
vn -0.9734 0.05474 0.22246
vn 0.44004 0.88994 -0.11993
vn 0.42759 0.90277 -0.04662
vn 0.44998 0.87203 -0.19256
vn 0.72528 -0.5967 -0.34339
vn 0.90106 -0.32388 -0.28843
vn 0.90036 -0.31599 -0.29917
vn 0.72648 -0.5826 -0.36443
vn 0.96679 -0.08395 -0.24139
vn 0.95525 -0.16144 -0.24785
vn 0.93562 -0.24045 -0.25845
vn 0.94249 -0.23122 -0.24135
vn -0.05432 -0.9697 -0.23818
vn -0.05432 -0.9697 -0.23818
vn -0.9431 0.12819 -0.30681
vn 0.05432 0.9697 0.23818
vn 0.05432 0.9697 0.23817
vn 0.05433 0.9697 0.23818
vn 0.4162 -0.23881 0.87735
vn 0.41621 -0.2388 0.87735

# uvs

vt 0.43675 0.95675
vt 0.396 0.94826
vt 0.43874 0.98358
vt 0.55381 0.9397
vt 0.56856 0.96464
vt 0.60758 0.94756
vt 0.49976 0.95111
vt 0.39392 0.04327
vt 0.41807 0.05849
vt 0.50559 0.06699
vt 0.46103 0.02841
vt 0.42878 0.6498
vt 0.38704 0.65244
vt 0.61607 0.65121
vt 0.55692 0.65033
vt 0.37272 0.2771
vt 0.3223 0.28314
vt 0.58199 0.27893
vt 0.67415 0.2794
vt 0.50007 0.6496
vt 0.49967 0.27859
vt 0.50085 0.22127
vt 0.5789 0.21432
vt 0.56244 0.05887
vt 0.33666 0.18913
vt 0.37965 0.20884
vt 0.62812 0.05085
vt 0.67006 0.20621
vt 0.31693 0.25754
vt 0.32404 0.21301
vt 0.28775 0.20134
vt 0.7467 0.20192
vt 0.7508 0.27511
vt 0.28185 0.25417

# faces

f 5/1/5 16/2/16 21/3/20
f 1/4/1 21/5/20 16/6/16
f 9/7/9 5/1/5 21/3/20
f 1/4/1 9/7/9 21/5/20
f 20/8/15 14/9/14 15/10/15
f 15/10/15 13/11/13 20/8/15
f 16/2/49 6/12/6 17/13/17
f 16/2/49 5/1/50 6/12/6
f 1/4/51 17/14/52 2/15/2
f 1/4/51 16/6/53 17/14/52
f 17/13/17 7/16/7 18/17/18
f 17/13/17 6/12/6 7/16/7
f 17/14/54 3/18/3 2/15/55
f 17/14/54 18/19/56 3/18/3
f 10/20/10 1/4/51 2/15/2
f 10/20/10 9/7/57 1/4/51
f 11/21/11 2/15/55 3/18/3
f 11/21/11 10/20/58 2/15/55
f 12/22/12 3/18/3 4/23/4
f 12/22/12 11/21/11 3/18/3
f 15/10/59 4/23/4 13/24/60
f 15/10/59 12/22/12 4/23/4
f 19/25/19 14/9/19 20/8/61
f 19/25/19 8/26/8 14/9/19
f 4/23/62 20/27/63 13/24/64
f 4/23/62 19/28/65 20/27/63
f 6/12/66 9/7/66 10/20/67
f 6/12/66 5/1/68 9/7/66
f 6/12/69 11/21/70 7/16/71
f 6/12/69 10/20/72 11/21/70
f 8/26/73 11/21/70 12/22/74
f 8/26/73 7/16/71 11/21/70
f 14/9/75 12/22/74 15/10/76
f 14/9/75 8/26/73 12/22/74
f 3/18/3 19/28/65 4/23/62
f 3/18/3 18/19/56 19/28/65
f 8/26/8 22/29/21 7/16/7
f 8/26/8 23/30/22 22/29/21
f 19/25/77 23/30/77 8/26/78
f 19/25/77 25/31/24 23/30/77
f 18/19/56 25/32/79 19/28/65
f 18/19/56 24/33/23 25/32/79
f 7/16/80 24/34/80 18/17/81
f 7/16/80 22/29/82 24/34/80
f 24/34/83 23/30/22 25/31/84
f 24/34/83 22/29/21 23/30/22
f 30/1/29 46/3/44 41/2/40
f 26/4/25 41/6/40 46/5/44
f 34/7/33 46/3/44 30/1/29
f 26/4/25 46/5/44 34/7/33
f 45/8/39 40/10/39 39/9/38
f 40/10/39 45/8/39 38/11/37
f 41/2/85 42/13/41 31/12/30
f 41/2/85 31/12/30 30/1/86
f 26/4/87 27/15/26 42/14/88
f 26/4/87 42/14/88 41/6/89
f 42/13/41 43/17/42 32/16/31
f 42/13/41 32/16/31 31/12/30
f 42/14/90 27/15/91 28/18/27
f 42/14/90 28/18/27 43/19/92
f 35/20/34 27/15/26 26/4/87
f 35/20/34 26/4/87 34/7/93
f 36/21/35 28/18/27 27/15/91
f 36/21/35 27/15/91 35/20/94
f 37/22/36 29/23/28 28/18/27
f 37/22/36 28/18/27 36/21/35
f 40/10/95 38/24/96 29/23/28
f 40/10/95 29/23/28 37/22/36
f 44/25/43 45/8/97 39/9/43
f 44/25/43 39/9/43 33/26/32
f 29/23/98 38/24/99 45/27/100
f 29/23/98 45/27/100 44/28/101
f 31/12/102 35/20/103 34/7/102
f 31/12/102 34/7/102 30/1/104
f 31/12/105 32/16/106 36/21/107
f 31/12/105 36/21/107 35/20/108
f 33/26/109 37/22/110 36/21/107
f 33/26/109 36/21/107 32/16/106
f 39/9/111 40/10/112 37/22/110
f 39/9/111 37/22/110 33/26/109
f 28/18/27 29/23/98 44/28/101
f 28/18/27 44/28/101 43/19/92
f 33/26/32 32/16/31 47/29/45
f 33/26/32 47/29/45 48/30/46
f 44/25/113 33/26/114 48/30/113
f 44/25/113 48/30/113 50/31/48
f 43/19/92 44/28/101 50/32/115
f 43/19/92 50/32/115 49/33/47
f 32/16/116 43/17/117 49/34/116
f 32/16/116 49/34/116 47/29/118
f 49/34/119 50/31/120 48/30/46
f 49/34/119 48/30/46 47/29/45
