################################
# OBJ generated by split_obj.py
################################
# Faces:    80
# Vertices: 46
# Normals:  100
# UVs:      44
################################

# vertices

v -11.767900 24.177700 4.389100
v -12.114400 7.353100 4.475600
v -9.014900 1.374200 3.992900
v -16.261801 24.179501 7.089700
v -16.221901 7.354700 6.848100
v -18.538099 1.381100 18.741600
v -19.386801 24.178900 2.942000
v -19.113800 7.354200 3.145200
v -21.813000 1.376300 1.559200
v -14.892800 24.177000 0.241200
v -15.006300 7.352500 0.772600
v -14.323900 1.373300 -2.668800
v -17.044800 4.767400 11.045000
v -21.271799 4.084900 1.552700
v -9.516100 4.083000 3.796800
v -14.422000 4.082200 -2.202500
v -11.642200 43.247002 4.390100
v -16.261499 43.248798 7.191400
v -19.498501 43.248199 2.930100
v -14.878900 43.246300 0.129400
v -13.698000 1.378500 14.171400
v -21.313200 1.379700 12.725800
v -17.900900 3.463900 15.413800
v 11.767900 24.177700 4.389100
v 12.114400 7.353100 4.475600
v 9.014900 1.374200 3.992900
v 16.261801 24.179501 7.089700
v 16.221901 7.354700 6.848100
v 18.538099 1.381100 18.741600
v 19.386801 24.178900 2.942000
v 19.113800 7.354200 3.145200
v 21.813000 1.376300 1.559200
v 14.892800 24.177000 0.241200
v 15.006300 7.352500 0.772600
v 14.323900 1.373300 -2.668800
v 17.044800 4.767400 11.045000
v 21.271799 4.084900 1.552700
v 9.516100 4.083000 3.796800
v 14.422000 4.082200 -2.202500
v 11.642200 43.247002 4.390100
v 16.261499 43.248798 7.191400
v 19.498501 43.248199 2.930100
v 14.878900 43.246300 0.129400
v 13.698000 1.378500 14.171400
v 21.313200 1.379700 12.725800
v 17.900900 3.463900 15.413800

# normals

vn 0.51623 -0.00475 0.85643
vn 0.53571 0.31032 0.78531
vn 0.77285 0.11568 -0.62395
vn 0.51012 -0.00734 0.86007
vn 0.45234 0.42725 0.78285
vn -0.00022 -1 0.00032
vn -0.79867 -0.005 0.60174
vn -0.79072 0.31167 0.52691
vn -0.48306 0.11227 -0.86836
vn -0.51507 -0.01412 -0.85703
vn -0.47676 0.30061 -0.82604
vn -0.48735 0.13096 -0.86333
vn -0.63846 0.70419 0.31061
vn -0.8171 0.51116 0.26658
vn 0.65736 0.50938 0.55534
vn -0.46568 0.276 -0.84081
vn 0.0002 1 -0.00032
vn 0.00021 1 -0.00031
vn 0.00022 1 -0.00031
vn -0.00024 -1 0.00031
vn -0.00021 -1 0.00032
vn -0.70193 0.68558 0.19309
vn -0.51623 -0.00475 0.85643
vn -0.53571 0.31032 0.78531
vn -0.77285 0.11568 -0.62395
vn -0.51012 -0.00734 0.86007
vn -0.45234 0.42725 0.78285
vn 0.00022 -1 0.00032
vn 0.79867 -0.005 0.60174
vn 0.79072 0.31167 0.52691
vn 0.48306 0.11227 -0.86836
vn 0.51507 -0.01412 -0.85703
vn 0.47676 0.30061 -0.82604
vn 0.48735 0.13096 -0.86333
vn 0.63846 0.70419 0.31061
vn 0.8171 0.51116 0.26658
vn -0.65736 0.50938 0.55534
vn 0.46568 0.276 -0.84081
vn -0.0002 1 -0.00032
vn -0.00021 1 -0.00031
vn -0.00022 1 -0.00031
vn 0.00024 -1 0.00031
vn 0.00021 -1 0.00032
vn 0.70193 0.68558 0.19309
vn -0.79546 -0.00598 0.60598
vn -0.71226 0.42817 0.5562
vn -0.51219 -0.0126 -0.85878
vn -0.47577 0.30797 -0.82389
vn 0.75144 0.3009 -0.58719
vn 0.7951 -0.01634 -0.60625
vn 0.74974 0.30822 -0.58557
vn 0.79785 -0.01125 -0.60275
vn 0.47581 0.70291 0.5287
vn -0.4372 0.43887 -0.78502
vn 0.74613 0.2787 -0.60466
vn 0.77493 0.13437 -0.6176
vn 0.69874 0.44073 -0.56349
vn 0.79749 -0.00468 -0.60331
vn 0.79628 -0.00413 -0.60491
vn -0.51677 -0.00411 -0.85612
vn -0.51843 -0.00357 -0.85511
vn -0.79749 -0.00376 0.60332
vn -0.7963 -0.00321 0.60489
vn 0.51681 -0.00402 0.85609
vn 0.51853 -0.00346 0.85505
vn -0.60611 0.77779 0.16635
vn -0.65944 0.68753 0.30404
vn 0.49885 0.77875 0.3804
vn 0.57794 0.68564 0.44259
vn 0.49765 0.6892 0.52664
vn -0.81197 0.56565 0.14404
vn 0.69802 0.5652 0.43968
vn 0.79546 -0.00598 0.60598
vn 0.71226 0.42817 0.5562
vn 0.51219 -0.0126 -0.85878
vn 0.47577 0.30797 -0.82389
vn -0.75144 0.3009 -0.58719
vn -0.74974 0.30822 -0.58557
vn -0.7951 -0.01634 -0.60625
vn -0.79785 -0.01125 -0.60275
vn -0.47581 0.70291 0.5287
vn 0.4372 0.43887 -0.78502
vn -0.74613 0.2787 -0.60466
vn -0.77493 0.13437 -0.6176
vn -0.69874 0.44073 -0.56349
vn -0.79749 -0.00468 -0.60331
vn -0.79628 -0.00413 -0.60491
vn 0.51677 -0.00411 -0.85612
vn 0.51843 -0.00357 -0.85511
vn 0.79749 -0.00376 0.60332
vn 0.7963 -0.00321 0.60489
vn -0.51681 -0.00402 0.85609
vn -0.51853 -0.00346 0.85505
vn 0.65944 0.68753 0.30404
vn 0.60611 0.77779 0.16635
vn -0.49885 0.77875 0.3804
vn -0.49765 0.6892 0.52664
vn -0.57794 0.68564 0.44259
vn 0.81197 0.56565 0.14404
vn -0.69802 0.5652 0.43968

# uvs

vt 0.71059 0.96021
vt 0.59833 0.96255
vt 0.65146 0.94401
vt 0.65743 0.97867
vt 0.40657 0.16773
vt 0.35703 0.53745
vt 0.3587 0.16879
vt 0.41116 0.53702
vt 0.69943 0.54329
vt 0.65563 0.16871
vt 0.69528 0.1699
vt 0.65426 0.54282
vt 0.59145 0.16949
vt 0.58238 0.54312
vt 0.46241 0.16862
vt 0.47143 0.53738
vt 0.74757 0.09759
vt 0.63108 0.09547
vt 0.30639 0.09774
vt 0.43428 0.09599
vt 0.54378 0.09667
vt 0.64808 0.03471
vt 0.5326 0.03645
vt 0.51004 0.09738
vt 0.42097 0.03639
vt 0.52118 0.03839
vt 0.40603 0.92847
vt 0.47073 0.92847
vt 0.58055 0.92847
vt 0.65462 0.92847
vt 0.70116 0.92847
vt 0.35277 0.92847
vt 0.87637 0.3159
vt 0.83345 0.18117
vt 0.87731 0.13285
vt 0.8987 0.32193
vt 0.93527 0.20905
vt 0.92106 0.32809
vt 0.83505 0.07371
vt 0.82524 0.03689
vt 0.96375 0.03859
vt 0.23518 0.03797
vt 0.21874 0.07406
vt 0.08978 0.03921

# faces

f 20/1/18 18/2/18 17/3/17
f 20/1/18 19/4/19 18/2/18
f 2/5/2 4/6/4 5/7/5
f 2/5/2 1/8/1 4/6/4
f 4/9/45 8/10/8 5/11/46
f 4/9/45 7/12/7 8/10/8
f 7/12/47 11/13/11 8/10/48
f 7/12/47 10/14/10 11/13/11
f 11/15/49 1/8/50 2/5/51
f 11/15/49 10/16/52 1/8/50
f 13/17/13 8/10/8 14/18/14
f 13/17/13 5/11/46 8/10/8
f 13/19/53 2/5/2 5/7/5
f 13/19/53 15/20/15 2/5/2
f 14/18/54 11/13/11 16/21/16
f 14/18/54 8/10/48 11/13/11
f 9/22/9 16/21/16 12/23/12
f 9/22/9 14/18/54 16/21/16
f 16/24/55 3/25/3 12/26/56
f 16/24/55 15/20/57 3/25/3
f 15/20/57 11/15/49 2/5/51
f 15/20/57 16/24/55 11/15/49
f 10/16/52 17/27/58 1/8/50
f 10/16/52 20/28/59 17/27/58
f 7/12/47 20/29/60 10/14/10
f 7/12/47 19/30/61 20/29/60
f 4/9/45 19/30/62 7/12/7
f 4/9/45 18/31/63 19/30/62
f 1/8/1 18/32/64 4/6/4
f 1/8/1 17/27/65 18/32/64
f 22/33/21 9/34/21 12/35/6 6/36/6
f 6/36/6 12/35/6 3/37/20 21/38/20
f 23/39/22 22/40/66 6/41/67
f 21/42/68 23/43/69 6/44/70
f 23/39/22 9/22/71 22/40/66
f 3/25/72 23/43/69 21/42/68
f 15/20/15 23/43/69 3/25/72
f 15/20/15 13/19/53 23/43/69
f 14/18/14 23/39/22 13/17/13
f 14/18/14 9/22/71 23/39/22
f 43/1/40 40/3/39 41/2/40
f 43/1/40 41/2/40 42/4/41
f 25/5/24 28/7/27 27/6/26
f 25/5/24 27/6/26 24/8/23
f 27/9/73 28/11/74 31/10/30
f 27/9/73 31/10/30 30/12/29
f 30/12/75 31/10/76 34/13/33
f 30/12/75 34/13/33 33/14/32
f 34/15/77 25/5/78 24/8/79
f 34/15/77 24/8/79 33/16/80
f 36/17/35 37/18/36 31/10/30
f 36/17/35 31/10/30 28/11/74
f 36/19/81 28/7/27 25/5/24
f 36/19/81 25/5/24 38/20/37
f 37/18/82 39/21/38 34/13/33
f 37/18/82 34/13/33 31/10/76
f 32/22/31 35/23/34 39/21/38
f 32/22/31 39/21/38 37/18/82
f 39/24/83 35/26/84 26/25/25
f 39/24/83 26/25/25 38/20/85
f 38/20/85 25/5/78 34/15/77
f 38/20/85 34/15/77 39/24/83
f 33/16/80 24/8/79 40/27/86
f 33/16/80 40/27/86 43/28/87
f 30/12/75 33/14/32 43/29/88
f 30/12/75 43/29/88 42/30/89
f 27/9/73 30/12/29 42/30/90
f 27/9/73 42/30/90 41/31/91
f 24/8/23 27/6/26 41/32/92
f 24/8/23 41/32/92 40/27/93
f 45/33/43 29/36/28 35/35/28 32/34/43
f 29/36/28 44/38/42 26/37/42 35/35/28
f 46/39/44 29/41/94 45/40/95
f 44/42/96 29/44/97 46/43/98
f 46/39/44 45/40/95 32/22/99
f 26/25/100 44/42/96 46/43/98
f 38/20/37 26/25/100 46/43/98
f 38/20/37 46/43/98 36/19/81
f 37/18/36 36/17/35 46/39/44
f 37/18/36 46/39/44 32/22/99
